# xmcd
#
# Track frame offsets: 
#        150
#        16786
#        34006
#        51083
#        68407
#        84577
#        100494
#        117209
#        134826
#        152289
#
# Disc length: 2235 seconds
#
# Revision: 0
# Processed by: cddbd v1.5.2PL0 Copyright (c) Steve Scherf et al.
# Submitted via: ExactAudioCopy v0.95b4
#
DISCID=7608b90a
DTITLE=แดง จิตกร - หัวใจสะแหมรัก
DYEAR=1900
DGENRE=Country
TTITLE0=หัวใจสะแหมรัก
TTITLE1=หวามใจมือถือ
TTITLE2=กลัวคำอวยพร
TTITLE3=เจ็บกว่าตายจาก
TTITLE4=ร้านลาบปากซอย
TTITLE5=คอยเธอที่คลื่นชุมชน
TTITLE6=เจอกันงานแต่ง
TTITLE7=หัวใจไก่เหงา
TTITLE8=ให้เว้าหยอกแหน่
TTITLE9=สักวาหน้าหนาว
EXTD=
EXTT0=
EXTT1=
EXTT2=
EXTT3=
EXTT4=
EXTT5=
EXTT6=
EXTT7=
EXTT8=
EXTT9=
PLAYORDER=
